<?xml version="1.0" encoding="UTF-8"?>
<svg id="Camada_1" data-name="Camada 1" xmlns="http://www.w3.org/2000/svg" version="1.1" viewBox="0 0 1077.17 283.46">
  <defs>
    <style>
      .cls-1, .cls-2, .cls-3, .cls-4, .cls-5, .cls-6, .cls-7 {
        stroke-miterlimit: 10;
      }

      .cls-1, .cls-7 {
        fill: #fff;
        stroke: #fff;
      }

      .cls-1, .cls-8 {
        stroke-width: 3px;
      }

      .cls-2 {
        fill: #009992;
        stroke: #009992;
      }

      .cls-3 {
        stroke-width: 7px;
      }

      .cls-3, .cls-5 {
        stroke: #1d1d1b;
      }

      .cls-3, .cls-9 {
        fill: #1d1d1b;
      }

      .cls-10 {
        fill: #ffec00;
      }

      .cls-10, .cls-11, .cls-12, .cls-13, .cls-14, .cls-9, .cls-15 {
        stroke-width: 0px;
      }

      .cls-11 {
        fill: #e40076;
      }

      .cls-12, .cls-5 {
        fill: none;
      }

      .cls-13 {
        fill: #a41254;
      }

      .cls-14 {
        fill: #770c3a;
      }

      .cls-4 {
        fill: #5c2482;
        stroke: #5c2482;
      }

      .cls-5 {
        stroke-width: 2px;
      }

      .cls-15, .cls-6 {
        fill: #fcfcf8;
      }

      .cls-6 {
        stroke: #b7b6b6;
        stroke-width: .25px;
      }

      .cls-8 {
        fill: #928e8c;
        stroke: #928e8c;
        stroke-linecap: round;
        stroke-linejoin: round;
      }
    </style>
  </defs>
  <g>
    <path class="cls-13" d="M515.62,73.99c-.17.61-.61,2.07-1.33,4.36l-2.12,6.66c-.56,1.84-1,3.32-1.33,4.44,2.96-.17,7.38-.39,13.27-.66l-2.42,7.38c-1.53-.02-2.86-.03-3.98-.03h-1.51c-3.74,0-9.25.6-16.51,1.79v-.08c0-.24.45-1.96,1.35-5.16,1.05-3.73,2-6.75,2.83-9.06,1.4-3.91,2.99-7.85,4.77-11.82.29-.68.83-1.91,1.61-3.7l2.25-5.26c.61-1.45,1.11-2.51,1.51-3.19l1.61-.15c.24.02.49.03.77.03.75,0,1.68-.08,2.78-.23l2.4-.38c-.2.37-.75,1.68-1.63,3.93l-3.6,9.11c-.07.29-.31.96-.71,2.02Z"/>
    <path class="cls-13" d="M531.01,84.22l.71-2.32c.15-.53.49-1.61,1.02-3.24.82-2.45,2.11-5.61,3.88-9.47.43-1,1.11-2.42,2.04-4.26-1.48.24-3.73.57-6.74,1l1.79-6.13c2.14-.19,4.83-.41,8.07-.66,3.39-.26,6.36-.41,8.93-.46l-1.89,5.95c-2.62,0-4.69.03-6.2.08l1.76.97c-.41.78-.92,1.96-1.53,3.52-.78,1.92-1.86,5.08-3.24,9.47-.49,1.62-.96,3.29-1.4,5.03.44-.02,1.2-.06,2.27-.13l3.16-.1-1.89,5.95c-3.18,0-5.26.03-6.23.08-1.57.12-5.12.54-10.67,1.25l1.79-6.15,2.04-.2c.6-.03,1.37-.09,2.32-.15Z"/>
    <path class="cls-13" d="M563.63,89.33c-1.41.44-2.94.66-4.59.66-3.59,0-6.39-1.31-8.4-3.93-1.85-2.42-2.78-5.56-2.78-9.44,0-.82.05-1.7.15-2.65.46-4.13,2.17-7.7,5.13-10.69,3.05-3.05,6.52-4.57,10.41-4.57,5.9,0,10.08,2.12,12.53,6.36l-7.71,3.91c-1.05-2.25-2.82-3.37-5.31-3.37s-4.68.86-6.38,2.58c-1.6,1.65-2.59,3.84-2.96,6.56-.1.63-.15,1.16-.15,1.58,0,2.04.57,3.79,1.71,5.26,1.21,1.53,2.76,2.3,4.65,2.3,2.04,0,3.84-.82,5.39-2.45l1.84-5.82,7.2-.84c-.88,2.5-1.51,4.71-1.86,6.64-.58,1.97-1.01,3.58-1.3,4.82l-.74,2.91c-1.7.26-3.98.54-6.84.87,0-.2,0-.43.03-.66ZM563.63,81.37l-.03.03.36-.89-.26.92-.08-.05Z"/>
    <path class="cls-13" d="M590.15,79.96l-6.2.31c-1.28,2.02-2.44,4.66-3.5,7.91l-7.73,1.91c.22-.85,1.23-3.09,3.01-6.71l1.86-3.78c1.75-3.56,4.51-7.95,8.27-13.17,2.06-2.88,4.09-5.43,6.1-7.66,1.19-.03,2.95-.11,5.28-.23l.18,2.6c.12,1.97.18,3.87.18,5.69,0,3.59-.26,6.93-.79,10.01-.19.53-.6,2.75-1.23,6.66-.26,1.62-.52,2.94-.79,3.96l-7.73,1.89c.54-1.75,1.57-4.88,3.09-9.39ZM592.24,65.23c-.7.99-2.16,3.35-4.39,7.1l-1.84,3.11,4.16-.08.94.74c.78-1.72,1.17-4.87,1.17-9.47,0-.7-.02-1.17-.05-1.4Z"/>
    <path class="cls-13" d="M635.56,85.27l-7.76.38c-1.58,2.54-3.04,5.84-4.36,9.9l-9.67,2.37c.27-1.05,1.53-3.85,3.78-8.37l2.32-4.72c2.2-4.46,5.64-9.95,10.34-16.46,2.57-3.61,5.11-6.8,7.63-9.57,1.48-.05,3.68-.15,6.59-.31l.23,3.27c.15,2.47.23,4.84.23,7.12,0,4.48-.33,8.64-1,12.51-.22.66-.73,3.44-1.53,8.32-.32,2.02-.65,3.68-.97,4.95l-9.67,2.35c.68-2.2,1.97-6.11,3.85-11.74ZM638.19,66.87c-.88,1.23-2.71,4.19-5.49,8.88l-2.3,3.88,5.18-.1,1.17.92c.99-2.14,1.48-6.08,1.48-11.82,0-.87-.02-1.45-.05-1.76Z"/>
    <path class="cls-13" d="M677.29,91.83c-3.56,3.96-8.11,5.95-13.65,5.95-4.49,0-8-1.63-10.52-4.9-2.31-3.03-3.47-6.96-3.47-11.79,0-1.04.06-2.14.18-3.32.58-5.17,2.72-9.63,6.43-13.37,3.79-3.81,8.13-5.72,13.02-5.72,7.38,0,12.61,2.65,15.67,7.94l-9.65,4.9c-1.31-2.82-3.52-4.24-6.64-4.24s-5.84,1.08-7.96,3.24c-2.01,2.06-3.25,4.79-3.73,8.19-.12.78-.18,1.45-.18,1.99,0,2.55.71,4.74,2.14,6.56,1.5,1.92,3.43,2.88,5.79,2.88,2.57,0,4.82-1.04,6.76-3.11l5.79,4.8Z"/>
    <path class="cls-13" d="M700.64,85.27l-7.76.38c-1.58,2.54-3.04,5.84-4.37,9.9l-9.67,2.37c.27-1.05,1.53-3.85,3.78-8.37l2.32-4.72c2.2-4.46,5.64-9.95,10.34-16.46,2.57-3.61,5.11-6.8,7.63-9.57,1.48-.05,3.68-.15,6.59-.31l.23,3.27c.15,2.47.23,4.84.23,7.12,0,4.48-.33,8.64-.99,12.51-.22.66-.73,3.44-1.53,8.32-.32,2.02-.65,3.68-.97,4.95l-9.67,2.35c.68-2.2,1.97-6.11,3.85-11.74ZM703.27,66.87c-.88,1.23-2.71,4.19-5.49,8.88l-2.3,3.88,5.18-.1,1.17.92c.99-2.14,1.48-6.08,1.48-11.82,0-.87-.02-1.45-.05-1.76Z"/>
    <path class="cls-13" d="M720.4,95.91l-1.92.59c-3.03.41-5.89.68-8.58.82.41-1.21,1.53-4.5,3.37-9.88.9-2.67,2.29-6.65,4.16-11.94.8-2.16,2.1-4.95,3.9-8.37-.56.36-1.33.78-2.3,1.28l-1.86-8.73c4.37-.66,8.15-1,11.33-1,.73,0,1.56.04,2.48.13,2.52.19,3.96.31,4.34.38,1.33.2,2.81.66,4.44,1.38,3.57,1.48,5.36,4.02,5.36,7.63,0,.68-.08,1.34-.23,1.97-1.45,12.42-9.61,21.01-24.5,25.75ZM725.76,74.5l-5,13.6c4.24-.99,8.14-3.31,11.71-6.97,2.88-2.99,4.31-6.1,4.31-9.32s-.62-5.1-1.86-5.54c-1.4-.49-2.54-.74-3.42-.74h-.1c-2.35.1-4.2.35-5.56.74l2.86,1.45c-.26.44-.89,1.78-1.91,4.01-.19.54-.53,1.46-1.02,2.76Z"/>
    <path class="cls-13" d="M775.68,58.68l-2.35,7.43h-2.96c-5.5,0-9.8.13-12.91.38l1.61.92c-.26.56-.88,2.03-1.89,4.42-.27.61-.58,1.34-.92,2.17l11-.41-2.32,6.66-10.85.38c-.78,2.31-1.65,5.26-2.6,8.83,2.96-.17,7.38-.39,13.27-.66l-2.43,7.38c-1.53-.02-2.86-.03-3.98-.03h-1.51c-3.74,0-9.25.6-16.51,1.79v-.08c0-.24.45-1.96,1.35-5.16,1.05-3.69,2-6.71,2.83-9.06,1.4-3.9,2.99-7.84,4.77-11.82.68-1.5,1.45-3.05,2.3-4.67-1.8.2-3.49.4-5.05.59l2.25-7.66c3.54-.27,7.77-.55,12.68-.84,2.93-.17,7.67-.36,14.22-.56ZM754.88,57.58c1.53-3.34,2.84-6.14,3.93-8.42,3.61-1.91,6.87-3.8,9.8-5.69l9.85,6.79c-.75,2.45-1.46,4.84-2.14,7.17l-8.8-6.48c-3.37,2.04-7.58,4.25-12.63,6.64Z"/>
    <path class="cls-13" d="M819.3,57.35l-3.75,16.39c-.1.41-.54,2.29-1.33,5.64l-1.71,7.45c-.7,2.94-1.3,5.85-1.81,8.73l-11.69,3.19c.83-3.08,2.12-7.3,3.85-12.66.53-1.6,1.4-4.42,2.6-8.47.56-1.89,1.4-4.37,2.53-7.45-2.16.77-5.46,4.9-9.9,12.4-1.67,2.81-3.28,6.84-4.85,12.1l-9.67,2.35c.07-.36.1-.91.1-1.66,0-3.66-.45-8.51-1.35-14.55-.34-2.38-.64-3.57-.89-3.57l-3.37,8.04c-1.53,3.64-2.45,7.07-2.76,10.29l-9.67,2.37c1.12-4.15,2.39-8.37,3.8-12.66,1.09-3.25,2.7-7.19,4.82-11.82.92-2.04,2.21-4.6,3.88-7.68.1-.31.15-.55.15-.74,0-.56-.22-1.45-.66-2.65-.54-1.57-.85-2.47-.92-2.71l9.37-2.12c1.12,3.76,2.11,7.23,2.96,10.41,1.23,4.54,1.89,8.43,1.99,11.66,3.3-6.87,7.31-12.1,12.02-15.67,1.77-1.55,3.58-2.82,5.44-3.83,1.41-.73,2.93-1.28,4.54-1.63,2.11-.49,3.4-.78,3.85-.87.88-.14,1.69-.23,2.42-.28Z"/>
    <path class="cls-13" d="M821.7,90.61l.87-2.91c.2-.66.64-2.02,1.3-4.06,1.02-3.06,2.63-7,4.82-11.82.54-1.26,1.4-3.04,2.58-5.33-1.85.31-4.67.72-8.45,1.25l2.25-7.66c2.67-.24,6.03-.52,10.08-.84,4.24-.32,7.95-.51,11.15-.56l-2.35,7.43c-3.27,0-5.85.03-7.76.1l2.22,1.2c-.51.99-1.16,2.46-1.94,4.42-.97,2.4-2.31,6.34-4.03,11.82-.61,2.02-1.2,4.13-1.76,6.3.54-.03,1.49-.09,2.83-.15l3.96-.15-2.35,7.45c-3.98,0-6.58.03-7.78.1-1.96.14-6.41.66-13.35,1.56l2.25-7.68,2.55-.26c.73-.05,1.7-.12,2.91-.2Z"/>
    <path class="cls-13" d="M871.27,91.83c-3.56,3.96-8.11,5.95-13.65,5.95-4.49,0-8-1.63-10.52-4.9-2.31-3.03-3.47-6.96-3.47-11.79,0-1.04.06-2.14.18-3.32.58-5.17,2.72-9.63,6.43-13.37,3.79-3.81,8.13-5.72,13.02-5.72,7.38,0,12.61,2.65,15.67,7.94l-9.65,4.9c-1.31-2.82-3.52-4.24-6.64-4.24s-5.84,1.08-7.96,3.24c-2.01,2.06-3.25,4.79-3.73,8.19-.12.78-.18,1.45-.18,1.99,0,2.55.71,4.74,2.14,6.56,1.5,1.92,3.43,2.88,5.79,2.88,2.57,0,4.82-1.04,6.76-3.11l5.79,4.8Z"/>
    <path class="cls-13" d="M894.62,85.27l-7.76.38c-1.58,2.54-3.04,5.84-4.37,9.9l-9.67,2.37c.27-1.05,1.53-3.85,3.78-8.37l2.32-4.72c2.2-4.46,5.64-9.95,10.34-16.46,2.57-3.61,5.11-6.8,7.63-9.57,1.48-.05,3.68-.15,6.59-.31l.23,3.27c.15,2.47.23,4.84.23,7.12,0,4.48-.33,8.64-.99,12.51-.22.66-.73,3.44-1.53,8.32-.32,2.02-.65,3.68-.97,4.95l-9.67,2.35c.68-2.2,1.97-6.11,3.85-11.74ZM897.25,66.87c-.88,1.23-2.71,4.19-5.49,8.88l-2.3,3.88,5.18-.1,1.17.92c.99-2.14,1.48-6.08,1.48-11.82,0-.87-.02-1.45-.05-1.76Z"/>
    <path class="cls-9" d="M572.15,109.02l-2.85,9h-3.71c-3.63,0-6.78.04-9.44.12l2.72,1.45c-2,3.8-4.42,10.35-7.27,19.68-1.05,3.55-2.34,8.36-3.87,14.45l-.34.09c-2.76.52-6.56,1.44-11.39,2.78,1.51-5.77,3.24-11.55,5.2-17.32,1.2-3.59,3.16-8.36,5.88-14.32.64-1.48,1.67-3.64,3.09-6.47-3.9.37-8.35.88-13.36,1.52l2.75-9.28c4.48-.33,9.59-.67,15.35-1.02,3.53-.21,9.27-.43,17.23-.68Z"/>
    <path class="cls-9" d="M608.19,123.49c-1.3,6.89-5.71,11.2-13.24,12.93,4.83,5.26,8.84,10.55,12.03,15.87l-10.67,3.87c-3.07-6.25-7.18-12.36-12.31-18.35l-1.58-1.3-1.05,3.22c-.72,2.31-2.01,7.14-3.87,14.48l-.34.06c-3.3.64-7.1,1.54-11.39,2.69,1.44-5.57,3.17-11.31,5.17-17.23,1.24-3.73,3.19-8.51,5.85-14.32.54-1.15,1.31-2.72,2.32-4.7-.87.27-1.62.48-2.26.65l-2.26-10.58c5.3-.8,9.88-1.21,13.74-1.21.89,0,1.89.05,3,.15,3.05.23,4.81.38,5.26.46,1.61.25,3.4.8,5.38,1.67,4.33,1.79,6.5,4.88,6.5,9.25,0,.62-.09,1.41-.28,2.38ZM598.75,122.46c0-1.65-1.1-2.88-3.31-3.68-.64-.25-1.68-.37-3.12-.37h-.8c-1.28.06-3.01.39-5.2.99l2.23,1.14c-.74,1.3-1.52,2.92-2.32,4.86-.06.14-.47,1.26-1.24,3.34l2.66-.09c2.76-.06,5.09-.46,6.99-1.21,2.74-1.07,4.11-2.73,4.11-4.98Z"/>
    <path class="cls-9" d="M619.95,147.73l1.05-3.53c.25-.8.77-2.44,1.58-4.92,1.24-3.71,3.19-8.49,5.85-14.32.66-1.53,1.7-3.68,3.12-6.47-2.25.37-5.66.88-10.24,1.52l2.72-9.28c3.24-.29,7.31-.63,12.22-1.02,5.14-.39,9.64-.62,13.52-.68l-2.85,9c-3.96,0-7.1.04-9.4.12l2.69,1.45c-.62,1.2-1.4,2.98-2.35,5.35-1.18,2.91-2.81,7.68-4.89,14.32-.74,2.45-1.45,5-2.13,7.64.66-.04,1.8-.1,3.43-.19l4.8-.19-2.85,9.03c-4.83,0-7.97.04-9.44.12-2.37.17-7.77.79-16.18,1.89l2.72-9.31,3.09-.31c.89-.06,2.06-.14,3.53-.25Z"/>
    <path class="cls-9" d="M663.92,127.05c-.21.74-.74,2.51-1.61,5.29l-2.57,8.07c-.68,2.23-1.22,4.02-1.61,5.38,3.59-.21,8.95-.47,16.09-.8l-2.94,8.94c-1.86-.02-3.47-.03-4.83-.03h-1.83c-4.54,0-11.21.72-20.02,2.17v-.09c0-.29.55-2.37,1.64-6.25,1.28-4.52,2.42-8.18,3.43-10.98,1.69-4.74,3.62-9.52,5.79-14.32.35-.82,1-2.32,1.95-4.49l2.72-6.37c.74-1.75,1.35-3.04,1.83-3.87l1.95-.19c.29.02.6.03.93.03.91,0,2.03-.09,3.37-.28l2.91-.46c-.25.45-.91,2.04-1.98,4.76l-4.36,11.04c-.08.35-.37,1.17-.87,2.44Z"/>
    <path class="cls-9" d="M726.17,109.56c-2.76,5.01-5.67,10.98-8.72,17.91-1.09,2.5-2.71,7.27-4.86,14.32-.58,1.9-1.7,5.69-3.37,11.39l-11.73,2.85c1.44-4.74,3-9.49,4.67-14.23.14-.43.63-1.76,1.45-3.99l-12,1.36-.8,2.63c-.64,2.15-1.75,6.3-3.34,12.47l-11.73,2.88c1.34-4.95,2.88-10.06,4.61-15.35,1.34-4,3.29-8.78,5.85-14.32,1.96-4.25,4.94-9.95,8.94-17.11l1.18-.12c2.35-.27,5.05-.49,8.11-.68-2.17,3.94-5.07,9.91-8.72,17.91-.08.19-.42,1.03-1.02,2.54l10.74-1.36,1.11,2.13c2.54-5.84,5.98-12.64,10.33-20.42l1.27-.12c2.33-.27,5.01-.49,8.04-.68Z"/>
    <path class="cls-9" d="M741.37,140.69l-9.4.46c-1.92,3.07-3.68,7.07-5.29,12l-11.73,2.88c.33-1.28,1.86-4.66,4.58-10.15l2.82-5.72c2.66-5.4,6.84-12.05,12.53-19.95,3.11-4.37,6.2-8.24,9.25-11.6,1.79-.06,4.46-.19,7.98-.37l.28,3.96c.19,2.99.28,5.87.28,8.63,0,5.42-.4,10.48-1.21,15.16-.27.8-.89,4.17-1.86,10.09-.39,2.45-.78,4.45-1.18,6l-11.73,2.85c.82-2.66,2.38-7.4,4.67-14.23ZM744.56,118.38c-1.07,1.48-3.29,5.07-6.65,10.77l-2.78,4.7,6.28-.12,1.42,1.11c1.2-2.6,1.79-7.37,1.79-14.32,0-1.05-.02-1.76-.06-2.13Z"/>
    <path class="cls-9" d="M784,117.21c-1.69.06-3.14.23-4.36.49-3.05.7-5.22,1.94-6.5,3.71-.43.62-.65,1.26-.65,1.92,0,1.13.59,2.55,1.76,4.24,1.57,2.27,2.48,3.67,2.72,4.21,1.44,3.36,2.17,5.99,2.17,7.89v.74c-.43,4.68-3.11,8.65-8.04,11.91-2.7,1.82-7.03,3.47-12.99,4.95l-2.17-11.54c2.25-.29,4.28-.74,6.09-1.36,4.27-1.46,6.4-3.42,6.4-5.88v-.4c0-1.24-.39-2.63-1.18-4.18-.43-.64-1.2-1.83-2.29-3.56-1.94-3.05-2.91-5.7-2.91-7.95,0-4.81,1.79-8.26,5.38-10.36,2.76-1.61,6.92-3.1,12.47-4.49l4.08,9.65Z"/>
    <path class="cls-9" d="M809.43,154.16l-2.32.71c-3.67.5-7.14.83-10.4.99.5-1.46,1.86-5.46,4.08-11.97,1.09-3.24,2.77-8.06,5.04-14.48.97-2.62,2.55-6,4.73-10.15-.68.43-1.61.95-2.78,1.55l-2.26-10.58c5.3-.8,9.88-1.21,13.74-1.21.89,0,1.89.05,3,.15,3.05.23,4.81.38,5.26.46,1.61.25,3.4.8,5.38,1.67,4.33,1.79,6.5,4.88,6.5,9.25,0,.83-.09,1.62-.28,2.38-1.75,15.06-11.65,25.46-29.7,31.22ZM815.93,128.21l-6.06,16.49c5.14-1.2,9.87-4.01,14.2-8.45,3.49-3.63,5.23-7.39,5.23-11.29s-.75-6.18-2.26-6.71c-1.69-.6-3.07-.9-4.15-.9h-.12c-2.85.12-5.09.42-6.74.9l3.47,1.76c-.31.54-1.08,2.16-2.32,4.86-.23.66-.64,1.77-1.24,3.34Z"/>
    <path class="cls-9" d="M858.15,141.26l-9.41.46c-1.92,3.07-3.68,7.07-5.29,12l-11.73,2.88c.33-1.28,1.86-4.66,4.58-10.15l2.82-5.72c2.66-5.4,6.84-12.05,12.53-19.95,3.11-4.37,6.2-8.24,9.25-11.6,1.79-.06,4.45-.19,7.98-.37l.28,3.96c.19,2.99.28,5.87.28,8.63,0,5.42-.4,10.48-1.21,15.16-.27.8-.89,4.17-1.86,10.09-.39,2.45-.78,4.46-1.18,6l-11.73,2.85c.82-2.66,2.38-7.4,4.67-14.23ZM861.34,118.96c-1.07,1.49-3.29,5.07-6.65,10.77l-2.78,4.7,6.28-.12,1.42,1.11c1.2-2.6,1.79-7.37,1.79-14.32,0-1.05-.02-1.76-.06-2.13Z"/>
    <path class="cls-9" d="M527.65,197.29l-8.23.41c-1.68,2.69-3.22,6.19-4.63,10.5l-10.26,2.52c.29-1.12,1.62-4.08,4.01-8.88l2.46-5.01c2.33-4.73,5.98-10.55,10.96-17.46,2.72-3.83,5.42-7.21,8.09-10.15,1.57-.05,3.9-.16,6.98-.32l.24,3.46c.16,2.62.24,5.13.24,7.55,0,4.75-.35,9.17-1.06,13.26-.24.7-.78,3.65-1.62,8.82-.34,2.15-.69,3.9-1.03,5.25l-10.26,2.49c.72-2.33,2.08-6.48,4.09-12.45ZM530.44,177.77c-.94,1.3-2.88,4.44-5.82,9.42l-2.44,4.11,5.5-.11,1.25.97c1.05-2.27,1.57-6.45,1.57-12.53,0-.92-.02-1.54-.05-1.87Z"/>
    <path class="cls-9" d="M550.46,192.66l-.92,2.82c-.63,2.02-1.76,6.24-3.38,12.67l-.3.05c-2.89.56-6.21,1.35-9.96,2.36,1.26-4.87,2.77-9.9,4.52-15.08,1.08-3.27,2.79-7.44,5.12-12.53.47-1.01,1.15-2.38,2.03-4.11-.76.24-1.42.42-1.98.57l-1.98-9.26c4.64-.7,8.64-1.06,12.02-1.06.78,0,1.65.05,2.63.14,2.67.2,4.2.33,4.6.41,1.41.22,2.98.7,4.71,1.46,3.79,1.57,5.68,4.27,5.68,8.09,0,.56-.08,1.25-.24,2.08-.88,4.58-4.42,7.87-10.61,9.85-3.3,1.03-7.28,1.54-11.94,1.54ZM564.75,180.37c0-1.44-.97-2.52-2.9-3.22-.56-.22-1.47-.32-2.73-.32h-.7c-1.12.05-2.64.34-4.55.87l1.95,1c-.65,1.14-1.33,2.55-2.03,4.25-.05.13-.42,1.1-1.08,2.92l2.33-.08c2.42-.05,4.46-.41,6.12-1.06,2.4-.94,3.6-2.39,3.6-4.36Z"/>
    <path class="cls-9" d="M603.91,181.26c-1.14,6.03-5,9.8-11.59,11.32,4.22,4.6,7.73,9.23,10.53,13.89l-9.34,3.38c-2.69-5.47-6.28-10.82-10.77-16.05l-1.38-1.14-.92,2.82c-.63,2.02-1.76,6.24-3.38,12.67l-.3.05c-2.89.56-6.21,1.35-9.96,2.36,1.26-4.87,2.77-9.9,4.52-15.08,1.08-3.27,2.79-7.44,5.12-12.53.47-1.01,1.15-2.38,2.03-4.11-.76.24-1.42.42-1.98.57l-1.98-9.26c4.64-.7,8.64-1.06,12.02-1.06.78,0,1.65.05,2.63.14,2.67.2,4.2.33,4.6.41,1.41.22,2.98.7,4.71,1.46,3.79,1.57,5.68,4.27,5.68,8.09,0,.54-.08,1.24-.24,2.08ZM595.65,180.37c0-1.44-.97-2.52-2.9-3.22-.56-.22-1.47-.32-2.73-.32h-.7c-1.12.05-2.64.34-4.55.87l1.95,1c-.65,1.14-1.33,2.55-2.03,4.25-.05.13-.42,1.1-1.08,2.92l2.33-.08c2.42-.05,4.46-.41,6.12-1.06,2.4-.94,3.6-2.39,3.6-4.36Z"/>
    <path class="cls-9" d="M641.08,169.08l-2.49,7.88h-3.14c-5.83,0-10.4.14-13.7.41l1.71.97c-.27.6-.94,2.16-2,4.68-.29.65-.61,1.42-.97,2.3l11.67-.43-2.46,7.07-11.5.41c-.83,2.45-1.75,5.58-2.76,9.37,3.14-.18,7.83-.41,14.08-.7l-2.57,7.82c-1.62-.02-3.03-.03-4.22-.03h-1.6c-3.97,0-9.81.63-17.51,1.89v-.08c0-.25.48-2.08,1.43-5.47,1.12-3.92,2.12-7.12,3-9.61,1.48-4.13,3.17-8.31,5.06-12.53.72-1.59,1.53-3.24,2.44-4.95-1.91.22-3.7.42-5.36.62l2.38-8.12c3.75-.29,8.24-.59,13.45-.89,3.1-.18,8.13-.38,15.08-.6Z"/>
    <path class="cls-9" d="M642.13,170l9.93-2.25c1.97,7.83,3.37,15.17,4.22,22.01.13,0,.54-.84,1.25-2.52l1.08-2.63c1.16-2.76,3.74-7.75,7.74-14.97l1.11-.11c2.04-.23,4.39-.43,7.04-.6-2.42,4.39-4.96,9.61-7.63,15.67-.96,2.18-2.37,6.36-4.25,12.53-.51,1.66-1.49,4.98-2.95,9.96l-10.26,2.49c.07-.38.11-.97.11-1.76,0-3.88-.48-9.02-1.43-15.43-.36-2.53-.68-3.79-.95-3.79l-3.57,8.53c-1.62,3.86-2.6,7.5-2.92,10.91l-10.26,2.52c1.19-4.4,2.54-8.88,4.03-13.43,1.15-3.45,2.86-7.62,5.12-12.53.97-2.17,2.35-4.88,4.11-8.15.11-.32.16-.59.16-.79,0-.6-.24-1.53-.7-2.82-.58-1.66-.9-2.62-.97-2.87Z"/>
    <path class="cls-9" d="M677.65,208.57l-2.03.62c-3.21.43-6.24.72-9.1.87.43-1.28,1.62-4.77,3.57-10.48.96-2.83,2.43-7.06,4.41-12.67.85-2.29,2.23-5.25,4.14-8.88-.6.38-1.41.83-2.44,1.35l-1.98-9.26c4.64-.7,8.64-1.06,12.02-1.06.78,0,1.65.05,2.63.14,2.67.2,4.2.33,4.6.41,1.41.22,2.98.7,4.71,1.46,3.79,1.57,5.68,4.27,5.68,8.09,0,.72-.08,1.42-.24,2.08-1.53,13.17-10.2,22.28-25.99,27.31ZM683.33,185.86l-5.31,14.43c4.49-1.05,8.64-3.51,12.43-7.39,3.05-3.18,4.57-6.47,4.57-9.88s-.66-5.4-1.98-5.87c-1.48-.52-2.69-.79-3.63-.79h-.11c-2.49.11-4.46.37-5.9.79l3.03,1.54c-.27.47-.95,1.89-2.03,4.25-.2.58-.56,1.55-1.08,2.92Z"/>
    <path class="cls-9" d="M703.42,202.94l.92-3.09c.22-.7.68-2.14,1.38-4.3,1.08-3.25,2.79-7.43,5.12-12.53.58-1.33,1.49-3.22,2.73-5.66-1.97.32-4.95.77-8.96,1.33l2.38-8.12c2.83-.25,6.4-.55,10.69-.89,4.49-.34,8.44-.54,11.83-.6l-2.49,7.88c-3.47,0-6.21.04-8.23.11l2.35,1.27c-.54,1.05-1.23,2.61-2.06,4.68-1.03,2.54-2.45,6.72-4.28,12.53-.65,2.15-1.27,4.38-1.87,6.69.58-.04,1.58-.09,3-.16l4.2-.16-2.49,7.9c-4.22,0-6.98.04-8.26.11-2.08.14-6.79.7-14.16,1.65l2.38-8.15,2.71-.27c.77-.05,1.8-.13,3.09-.22Z"/>
    <path class="cls-9" d="M738.33,186c.97-.92,2.13-2,3.47-3.25,2.73-2.53,4.74-4.51,6.04-5.96-.83.07-2.97.28-6.42.62l-6.82.65c-1.16.13-2.94.33-5.36.62l2.38-8.12c3.75-.29,8.24-.59,13.45-.89,3.1-.18,8.13-.38,15.08-.6l-2.49,7.88c-1.55,2.27-3.98,5.13-7.28,8.58l1.95-.08-2.14,5.96-5.85.22-4.17,4.2c-2.24,2.22-4.13,4.19-5.68,5.9,3.14-.18,8.82-.6,17.05-1.25l-2.57,7.82c-2.71.16-6.18.33-10.42.51-2.89,0-8.18.63-15.89,1.89.47-1.5.94-3.05,1.41-4.66l1.25-4.14c.47-1.62,1.84-3.77,4.11-6.44.79-.96,1.81-2.08,3.06-3.38l-3.38.14,2.41-5.96,6.82-.27Z"/>
    <path class="cls-9" d="M773.99,197.29l-8.23.41c-1.68,2.69-3.22,6.19-4.63,10.5l-10.26,2.52c.29-1.12,1.62-4.08,4.01-8.88l2.46-5.01c2.33-4.73,5.98-10.55,10.96-17.46,2.73-3.83,5.42-7.21,8.09-10.15,1.57-.05,3.9-.16,6.98-.32l.24,3.46c.16,2.62.24,5.13.24,7.55,0,4.75-.35,9.17-1.06,13.26-.24.7-.78,3.65-1.62,8.82-.34,2.15-.69,3.9-1.03,5.25l-10.26,2.49c.72-2.33,2.08-6.48,4.09-12.45ZM776.78,177.77c-.94,1.3-2.88,4.44-5.82,9.42l-2.44,4.11,5.5-.11,1.25.97c1.05-2.27,1.57-6.45,1.57-12.53,0-.92-.02-1.54-.05-1.87Z"/>
    <path class="cls-9" d="M806.5,209.71c-1.89.58-3.92.87-6.09.87-4.76,0-8.48-1.73-11.15-5.2-2.45-3.21-3.68-7.38-3.68-12.51,0-1.1.06-2.27.19-3.52.61-5.49,2.89-10.21,6.82-14.18,4.02-4.04,8.63-6.06,13.81-6.06,7.83,0,13.37,2.81,16.62,8.42l-10.23,5.2c-1.39-3-3.74-4.49-7.04-4.49s-6.19,1.15-8.45,3.44c-2.13,2.18-3.45,5.08-3.95,8.69-.13.83-.19,1.53-.19,2.11,0,2.71.76,5.03,2.27,6.96,1.59,2.04,3.64,3.06,6.14,3.06,2.71,0,5.08-1.08,7.12-3.25l2.46-7.74,9.53-1.11c-1.16,3.32-1.98,6.25-2.46,8.8-.76,2.62-1.34,4.75-1.73,6.39l-.97,3.87c-2.26.34-5.28.72-9.07,1.14,0-.25.02-.54.05-.87ZM806.5,199.15l-.03.03.46-1.19c-.13.42-.24.82-.35,1.22l-.08-.05Z"/>
    <path class="cls-9" d="M857.18,169.08l-2.49,7.88h-3.14c-5.83,0-10.4.14-13.7.41l1.71.97c-.27.6-.94,2.16-2,4.68-.29.65-.61,1.42-.97,2.3l11.67-.43-2.46,7.07-11.51.41c-.83,2.45-1.75,5.58-2.76,9.37,3.14-.18,7.83-.41,14.08-.7l-2.57,7.82c-1.62-.02-3.03-.03-4.22-.03h-1.6c-3.97,0-9.81.63-17.51,1.89v-.08c0-.25.48-2.08,1.43-5.47,1.12-3.92,2.12-7.12,3.01-9.61,1.48-4.13,3.17-8.31,5.06-12.53.72-1.59,1.53-3.24,2.44-4.95-1.91.22-3.7.42-5.36.62l2.38-8.12c3.75-.29,8.24-.59,13.45-.89,3.1-.18,8.13-.38,15.08-.6Z"/>
    <path class="cls-9" d="M903.44,167.67l-3.98,17.38c-.11.43-.58,2.43-1.41,5.98l-1.81,7.9c-.74,3.12-1.38,6.21-1.92,9.26l-12.4,3.38c.88-3.27,2.25-7.74,4.09-13.43.56-1.7,1.48-4.69,2.76-8.99.6-2,1.49-4.64,2.68-7.9-2.29.81-5.79,5.2-10.5,13.16-1.77,2.98-3.48,7.25-5.14,12.83l-10.26,2.49c.07-.38.11-.97.11-1.76,0-3.88-.48-9.02-1.44-15.43-.36-2.53-.68-3.79-.95-3.79l-3.57,8.53c-1.62,3.86-2.6,7.5-2.92,10.91l-10.26,2.52c1.19-4.4,2.54-8.88,4.03-13.43,1.15-3.45,2.86-7.62,5.12-12.53.97-2.17,2.35-4.88,4.11-8.15.11-.32.16-.59.16-.79,0-.6-.24-1.53-.7-2.82-.58-1.66-.9-2.62-.97-2.87l9.94-2.25c1.19,3.99,2.24,7.67,3.14,11.04,1.3,4.82,2,8.94,2.11,12.37,3.5-7.29,7.75-12.83,12.75-16.62,1.88-1.64,3.8-3,5.77-4.06,1.5-.78,3.1-1.35,4.82-1.73,2.24-.52,3.6-.83,4.09-.92.94-.14,1.79-.24,2.57-.3Z"/>
  </g>
  <path class="cls-12" d="M350.09,254.04"/>
  <path class="cls-2" d="M392.67,110.79l12.53,1.26s1.61.34,1.26,2.76-2.3,5.27-2.3,5.27l-26.32,14.25-113.33-10.9s-1.26-.34-.92-1.26,2.99-1.84,2.99-1.84l.69,1.95,20,1.26,59.77,5.75,30.11,2.87,26.32-14.37s1.26-.23.92-2.99-.8-1.72-.8-1.72l-27.12,13.6-109.99-10.04s-.23.34-1.26-.8-.34-2.18-.34-2.18l15.4-3.53s-1.88.48-2.99,1.18c-.66.42-.14.92.33,1.43.08.08.47.19,1.14.33,10.69,2.21,90.82,11.16,90.82,11.16l23.1-13.45Z"/>
  <ellipse class="cls-9" cx="429.35" cy="191.91" rx="14.16" ry="18.75" transform="translate(-35.53 263.02) rotate(-32.78)"/>
  <line class="cls-3" x1="304.21" y1="171.9" x2="261.17" y2="224.81"/>
  <polygon class="cls-9" points="417.35 186.47 419.46 187 406.81 205.99 232.45 203.58 270.26 174.38 417.35 186.47"/>
  <polygon class="cls-14" points="434.74 164.88 286.39 154.77 230.3 182.35 232.14 204.11 288.54 173.46 435.04 186.64 434.74 164.88"/>
  <circle class="cls-9" cx="377.96" cy="247.73" r="20"/>
  <circle class="cls-9" cx="258.9" cy="232.08" r="20"/>
  <path class="cls-9" d="M506.18,31.16s-35.52,11.93-40.49,11.15.55,6.98.55,6.98l22.6-10.12-53.2,162.83-19.45,3.26-2.53,3.09,22.88-2.2,56.67-165.58s17.83-5.25,18.41-6.4.45-6.48-2.48-8.07-2.97,5.06-2.97,5.06Z"/>
  <line class="cls-3" x1="426.96" y1="188.91" x2="383.92" y2="241.82"/>
  <path class="cls-5" d="M295.51,123.1"/>
  <polygon class="cls-13" points="434.74 164.88 435.04 186.64 407.09 227.6 406.69 204.61 434.74 164.88"/>
  <path class="cls-1" d="M264.24,174.07c-.42,5.71-1.43,7.34-.95,12.04.19,1.8.21,3.31-.24,4.05-1.63,2.68,0,2.61,0,2.61,4.25,5.57,39.11,14.07,59.4,23.06,0,0,2.74,4.14,3.74-6.78,1-10.92-4.78-13.52-4.78-13.52,0,0-56.77-27.17-57.18-21.46Z"/>
  <path class="cls-15" d="M279.65,105.77l.23,4.94.81.86,85.82,11.32,26.1-14.56s1.33-1.61.77-3.66-.93-2.28-.93-2.28l-25.9,14.41-86.9-11.03Z"/>
  <line class="cls-6" x1="366.54" y1="116.69" x2="367.19" y2="123.16"/>
  <path class="cls-10" d="M395.49,101.39l-79.84-7.13s-35.88,7.97-37.11,8.58c-1.24.61-1.18,1.32,1.55,2.61s20.32,2.87,41.61,5.58c22.18,2.82,41.95,6.2,45.2,5.9,2.62-.25,19.64-10.21,26.11-14.05,0,0-.02-.02-.02-.02l2.52-1.46ZM396.42,104.63c-.23-2.18-.61-2.84-.93-3.23,0,0-.95.57-2.49,1.49.12.13,1.29,1.43,1.16,2.72-.14,1.36-.89,2.38-.89,2.38l-26.08,15.02s-85.47-10.9-86.29-11.49c-.81-.59-.77-1.99-.77-1.99l-2.78,2.3s.14,1.26,1.08,1.53,89.03,11.89,89.03,11.89l27.41-16.18s1.78-2.24,1.55-4.43Z"/>
  <path class="cls-4" d="M341.53,152.2c1.15-1.15,48.62-14.02,48.62-14.02l1.96-3.56s10.25,2.3,8.53,2.99-53.96,17.51-53.96,17.51c0,0-6.3-1.76-5.15-2.91Z"/>
  <path class="cls-2" d="M405.85,153.54s5.52,1.69,5.67,2.61-64.21,24.37-68.65,22.68c-4.44-1.69-77.24-24.21-78.16-25.29s13.64-4.9,13.64-4.9c0,0-.61,2.15.15,3.68s2.15,1.84,2.15,1.84l64.82,21.45s59.46-20.08,60.23-20.69.15-1.38.15-1.38Z"/>
  <path class="cls-2" d="M410.08,165.76s2.74.65,3.2,2.61-70.58,29-70.58,29c0,0-3.2-2.93-2.9-8.64.3-5.7,2.44-8.47,2.44-8.47l69.21-24.11s1.98,1.47-.61,2.77-64.49,22.16-66.92,23.3-1.98,12.06-.91,10.92,67.08-27.37,67.08-27.37Z"/>
  <path class="cls-2" d="M264.42,154.35c-.4,1.44-.94,4.02-.94,6.11s1.72,7.39,1.72,7.39l31.15,12.56,47.01,16.7s-2.97-3.7-2.97-8.36,2.81-9,2.81-9l-78.79-25.4Z"/>
  <path class="cls-7" d="M401.94,140.36l-.54,11.03-54.79,18.93s-1.69-3.91-1.23-7.74c.46-3.83,3.22-5.9,3.22-5.9l53.33-16.32Z"/>
  <path class="cls-7" d="M275.59,125.51l-4.46,12.73,55.4,17.24s.86-2.94.86-9.42c0-6.48-1.15-8.4-1.15-8.4l-50.65-12.15Z"/>
  <line class="cls-6" x1="376.85" y1="127.26" x2="376.9" y2="131.74"/>
  <ellipse class="cls-8" cx="259.29" cy="232.04" rx="9.45" ry="10.02" transform="translate(-84.34 177.34) rotate(-32.78)"/>
  <ellipse class="cls-8" cx="378.37" cy="247.67" rx="9.45" ry="10.02" transform="translate(-73.84 244.3) rotate(-32.78)"/>
  <path class="cls-4" d="M391.98,134.77s6.44.71,6.87,2.23-51.77,18.07-51.77,18.07c0,0-2.61,1.69-3.14,10.88-.54,9.19,1.3,8.96,1.3,8.96l60.21-19.48s1.22-1.13.38-2.87-2.66-1.48-4.43-1.17-54.1,19.39-54.79,18.93-.77-2.99-.54-6.67c.23-3.68,2.53-6.97,2.53-6.97,16.72-5.07,48.12-14.41,50.34-15.25,2.22-.84,3.63-1.76,3.2-1.59s.71-.48-.21-1.86-9.96-3.22-9.96-3.22Z"/>
  <path class="cls-4" d="M280.2,142.28s-.7.92-1.16,5.52c-.46,4.6,1.28,5.52,1.28,5.52,0,0,61.84,20.04,64.2,21.3,2.36,1.26-1.82-6.59-.53-11.3,1.22-4.47,4.07-7.51,3.25-8.62s-6.84-2.53-6.84-2.53l-12.64,3.91-47.55-13.79Z"/>
  <path class="cls-11" d="M392.36,126.61c-.46.55-12.41,7.06-13.72,7.61s-104.03-9.41-104.57-9.49-2.07.66,3.24,1.33c5.3.68,45.62,9.41,48.16,11.69,2.54,2.27,1.93,16.86.39,16.39s-54.48-16.63-55.17-16.86-1.23.71-.23,1.65,57.1,17.41,57.1,17.41c0,0,62.04-17.46,63.03-18.59.99-1.12,1.77-3.45,1.93-6.59s.31-5.1-.15-4.55Z"/>
  <path class="cls-7" d="M411.6,159.37l-1.23,7.82-67.58,25.13-.38-1.69s-.15-2.15.08-3.68.31-5.52.31-5.52l68.81-22.07Z"/>
  <path class="cls-10" d="M415.35,170.28c.59.94.96,4.69.92,6.6s-1.68,10.2-1.68,10.2c0,0-3.98,2.49-9.02,4.35s-84.39,21.57-84.39,21.57l-64.9-17.37c-.69-.93-1.99-1.65-1.38-2.7s3.06-2.25,4.13-1.2,64.06,18.34,63.83,14.29.15-9.41-3.63-11.59c-3.78-2.17-58.98-21-58.98-21,0,0-1.53-1.95-1.53-3.15s.75-2.29,2.75-3,2.09.03,3.3-.35c.77-.24,76.16,28.4,77.84,28.55,1.68.15,70.31-26.55,70.31-26.55.13-.77,1.83.41,2.43,1.35Z"/>
  <g id="Camada_3" data-name="Camada 3">
    <polygon class="cls-13" points="406.69 204.61 407.31 227.71 232.47 203.92 230.32 182.12 406.69 204.61"/>
  </g>
  <rect class="cls-12" x="174.86" y="-46.45" width="355.84" height="356.53" transform="translate(705.57 263.63) rotate(-180)"/>
  <rect class="cls-12" x="54.58" y="5.11" width="972.14" height="253.57"/>
</svg>